M48
; DRILL file {KiCad 8.0.2-1.fc40} date 2025-03-27T00:29:45+0700
; FORMAT={-:-/ absolute / inch / decimal}
; #@! TF.CreationDate,2025-03-27T00:29:45+07:00
; #@! TF.GenerationSoftware,Kicad,Pcbnew,8.0.2-1.fc40
; #@! TF.FileFunction,Plated,1,2,PTH
FMAT,2
INCH
; #@! TA.AperFunction,Plated,PTH,ViaDrill
T1C0.0079
%
G90
G05
T1
X4.1339Y-3.9839
X4.1339Y-4.0969
X4.1395Y-4.5119
X4.1402Y-3.7594
X4.1409Y-3.6362
X4.1409Y-3.8382
X4.1409Y-3.8815
X4.1488Y-3.9323
X4.1555Y-4.0516
X4.1584Y-4.5256
X4.1657Y-3.7433
X4.1744Y-3.8803
X4.1748Y-3.9331
X4.1811Y-4.0165
X4.1819Y-4.5335
X4.1827Y-3.8354
X4.1902Y-4.1783
X4.1909Y-4.2594
X4.1919Y-4.1528
X4.1945Y-4.3052
X4.1984Y-4.3972
X4.2005Y-4.4622
X4.2026Y-3.6006
X4.2035Y-3.7732
X4.2035Y-4.2312
X4.2035Y-3.7102
X4.2039Y-4.0748
X4.2045Y-4.3312
X4.2075Y-3.9332
X4.2265Y-4.1532
X4.2272Y-3.8492
X4.2325Y-4.3062
X4.2385Y-4.2182
X4.2401Y-3.8297
X4.2409Y-3.9858
X4.241Y-4.0607
X4.2415Y-4.3698
X4.2455Y-3.9057
X4.2765Y-4.305
X4.2785Y-3.8682
X4.3181Y-4.3172
X4.3633Y-3.8684
X4.3866Y-4.4953
X4.3953Y-3.9714
X4.4461Y-4.4839
X4.4579Y-4.1492
X4.4641Y-4.419
X4.4892Y-4.2377
X4.4917Y-4.456
X4.4925Y-4.3482
X4.5087Y-3.8713
X4.5138Y-3.7929
X4.5158Y-4.4319
X4.5247Y-4.0186
X4.526Y-4.5028
X4.5268Y-4.2586
X4.527Y-3.8149
X4.5307Y-3.9684
X4.5472Y-4.5071
X4.5862Y-3.9087
X4.6038Y-4.4169
X4.6051Y-4.5138
X4.6066Y-4.2996
X4.6142Y-4.0949
X4.6145Y-4.3682
X4.6185Y-4.2134
X4.6428Y-4.468
X4.6428Y-3.7923
X4.6457Y-4.2079
X4.6465Y-3.9598
X4.6582Y-4.3334
X4.661Y-4.1846
X4.6669Y-4.0949
X4.6689Y-3.8654
X4.6748Y-4.2646
X4.6803Y-3.9531
X4.6827Y-4.4929
X4.6945Y-4.2217
X4.6949Y-3.8252
X4.7016Y-4.3929
X4.739Y-3.8874
X4.7555Y-4.3287
X4.7574Y-4.122
X4.7583Y-4.1768
X4.7583Y-4.5138
X4.7697Y-4.4138
X4.7725Y-4.2839
X4.7728Y-4.0362
X4.785Y-3.8764
X4.7882Y-4.1906
X4.7963Y-4.4547
X4.802Y-4.2646
X4.8055Y-3.9654
X4.8067Y-4.0307
X4.8201Y-4.1114
X4.828Y-3.865
X4.8291Y-4.3449
X4.8307Y-3.9835
X4.8543Y-4.0594
X4.8594Y-4.2012
X4.8664Y-3.9088
X4.8731Y-3.6964
X4.8807Y-3.9811
X4.8843Y-3.6287
X4.8854Y-3.6031
X4.8855Y-3.7972
X4.8874Y-3.902
X4.8875Y-3.765
X4.8949Y-4.3921
X4.8969Y-4.2803
X4.9055Y-4.5138
X4.9114Y-3.9547
X4.9117Y-4.0608
X4.926Y-3.9339
X4.9291Y-3.7445
X4.9441Y-3.6102
X4.9496Y-4.3752
X4.9504Y-3.6441
X4.9559Y-3.8016
X4.9613Y-4.0104
X4.9642Y-4.4146
X4.965Y-3.7731
X4.9712Y-4.1029
X4.9744Y-3.8693
X4.993Y-4.2387
X4.9961Y-4.1626
X4.9976Y-4.3098
X5.0091Y-4.3747
X5.0255Y-3.9312
X5.0265Y-3.7732
X5.0265Y-4.084
X5.0265Y-4.1607
X5.0265Y-4.3143
X5.0267Y-3.6964
X5.0275Y-3.6012
X5.0275Y-3.8532
X5.0276Y-4.3921
X5.0442Y-4.0249
X5.0453Y-3.9504
X5.046Y-4.2571
X5.0635Y-3.6032
X5.0645Y-4.3143
X5.074Y-4.4677
X5.0835Y-3.9862
X5.0839Y-4.2182
X5.0895Y-3.6302
X5.1032Y-4.0072
X5.1034Y-3.6964
X5.1034Y-3.9306
X5.1034Y-4.2377
X5.1035Y-3.6032
X5.1035Y-3.7732
X5.1035Y-3.8532
X5.1035Y-4.4682
X5.1035Y-4.0677
X5.1043Y-4.0461
X5.1047Y-4.1445
X5.1079Y-4.3748
X5.1105Y-3.9765
X5.1115Y-3.6612
X5.1409Y-4.3417
X5.1435Y-3.6032
X5.1724Y-3.8878
X5.1735Y-4.5172
X5.1756Y-4.0235
X5.176Y-4.2598
X5.1795Y-3.9312
X5.1799Y-4.3311
X5.18Y-4.084
X5.18Y-4.1607
X5.18Y-4.3911
X5.1802Y-4.4527
X5.1805Y-3.7732
X5.1806Y-3.6962
X5.1815Y-3.6202
X5.1815Y-3.8532
X5.2Y-4.1027
X5.218Y-4.2755
X5.2375Y-4.2182
X5.2484Y-4.1197
X5.2555Y-3.9312
X5.2565Y-3.6542
X5.2565Y-4.0677
X5.2568Y-4.0072
X5.2568Y-4.1447
X5.2568Y-4.2375
X5.2568Y-4.3143
X5.2568Y-4.3751
X5.257Y-3.6964
X5.257Y-4.4682
X5.2575Y-3.7732
X5.2575Y-3.8532
X5.2735Y-4.5172
X5.2925Y-4.2583
X5.3316Y-3.8968
X5.3335Y-3.7732
X5.3335Y-3.8532
X5.3335Y-3.9312
X5.3335Y-4.3912
X5.3336Y-4.0072
X5.3336Y-4.084
X5.3336Y-4.1607
X5.3337Y-3.6964
X5.3338Y-4.4522
X5.3346Y-3.8138
X5.335Y-4.2748
X5.3382Y-4.3306
X5.3413Y-4.113
X5.3715Y-4.2378
X5.3835Y-3.6012
X5.4094Y-4.1445
X5.4095Y-3.9312
X5.4095Y-4.0677
X5.4102Y-4.2555
X5.4103Y-4.0072
X5.4103Y-4.3143
X5.4105Y-4.3748
X5.4105Y-3.6964
X5.4106Y-4.4682
X5.4115Y-3.7732
X5.4115Y-3.8532
X5.4135Y-3.8972
X5.4531Y-3.5886
X5.4678Y-4.2182
X5.487Y-3.8154
X5.4871Y-4.0072
X5.4871Y-4.084
X5.4871Y-4.1607
X5.4871Y-4.2537
X5.4871Y-4.3302
X5.4873Y-3.6964
X5.4873Y-4.4521
X5.4875Y-3.7732
X5.4875Y-3.8532
X5.4875Y-3.9312
X5.4875Y-4.3912
X5.5251Y-4.1709
X5.5271Y-3.5886
X5.5626Y-4.1445
X5.5635Y-3.7732
X5.5635Y-3.8532
X5.5635Y-3.9312
X5.5635Y-4.3748
X5.5639Y-4.0072
X5.5639Y-4.2375
X5.5639Y-4.3143
X5.5641Y-3.6964
X5.5641Y-4.4682
X5.5642Y-3.8165
X5.5645Y-4.0677
X5.5646Y-3.6469
X5.6018Y-4.1616
X5.6031Y-3.5886
X5.6395Y-3.9312
X5.6406Y-4.0072
X5.6406Y-4.084
X5.6406Y-4.1607
X5.6406Y-4.2536
X5.6406Y-4.3911
X5.6408Y-3.6964
X5.6409Y-4.4525
X5.6413Y-3.8142
X5.6415Y-3.7732
X5.6415Y-3.8532
X5.6415Y-4.3306
X5.6786Y-4.1442
X5.7174Y-4.0072
X5.7174Y-4.1607
X5.7174Y-4.2375
X5.7174Y-4.3143
X5.7174Y-4.3757
X5.7175Y-3.7732
X5.7175Y-3.8532
X5.7175Y-3.9312
X5.7175Y-4.0677
X5.7176Y-3.6964
X5.7176Y-4.4682
X5.7935Y-3.7732
X5.7935Y-3.9312
X5.7942Y-4.0072
X5.7942Y-4.084
X5.7942Y-4.1607
X5.7942Y-4.2535
X5.7942Y-4.3911
X5.7944Y-3.6964
X5.7944Y-4.452
X5.7945Y-4.3306
X5.7955Y-3.8532
X5.8322Y-4.1012
X5.8634Y-4.2866
X5.8673Y-4.3311
X5.8695Y-3.9312
X5.8695Y-4.0677
X5.871Y-4.0072
X5.871Y-4.1607
X5.871Y-4.2375
X5.871Y-4.3753
X5.8711Y-3.6964
X5.8712Y-4.4682
X5.8715Y-3.7732
X5.8715Y-3.8532
X5.9089Y-4.0843
X5.9475Y-3.7732
X5.9475Y-3.8532
X5.9475Y-3.9312
X5.9477Y-4.0072
X5.9477Y-4.084
X5.9477Y-4.1607
X5.9477Y-4.2535
X5.9477Y-4.3911
X5.9479Y-3.6964
X5.948Y-4.4524
X5.9488Y-4.3413
X5.9857Y-4.0662
X6.0087Y-4.2921
X6.0232Y-4.1953
X6.0235Y-3.9312
X6.0245Y-4.3748
X6.0245Y-4.0072
X6.0245Y-4.084
X6.0245Y-4.1607
X6.0245Y-4.2375
X6.0245Y-4.3143
X6.0247Y-3.6964
X6.0247Y-4.4682
X6.0255Y-3.7732
X6.0255Y-3.8532
X6.026Y-3.6465
X6.1013Y-4.0072
X6.1013Y-4.084
X6.1013Y-4.1607
X6.1013Y-4.2536
X6.1013Y-4.3294
X6.1013Y-4.3911
X6.1015Y-3.6964
X6.1015Y-3.7732
X6.1015Y-3.8532
X6.1015Y-3.9312
X6.1015Y-4.4529
X6.1393Y-4.024
X6.1638Y-4.2902
X6.1775Y-3.7732
X6.1775Y-3.9312
X6.178Y-4.0072
X6.178Y-4.084
X6.178Y-4.1607
X6.178Y-4.2375
X6.178Y-4.3143
X6.178Y-4.3754
X6.1782Y-3.6964
X6.1783Y-4.4682
X6.1795Y-3.8532
X6.1807Y-3.6472
X6.216Y-4.0075
X6.2545Y-4.3306
X6.2548Y-4.0072
X6.2548Y-4.084
X6.2548Y-4.1607
X6.2548Y-4.3911
X6.255Y-3.6964
X6.255Y-4.4524
X6.2555Y-3.7732
X6.2555Y-3.8532
X6.2555Y-3.9312
X6.2555Y-4.2538
X6.2935Y-3.9909
X6.3311Y-4.2701
X6.3315Y-3.7732
X6.3315Y-3.8532
X6.3315Y-3.9312
X6.3316Y-4.0072
X6.3316Y-4.084
X6.3316Y-4.1607
X6.3316Y-4.2375
X6.3316Y-4.3143
X6.3316Y-4.3749
X6.3318Y-3.6964
X6.3318Y-4.4682
X6.3343Y-3.6469
X6.4075Y-3.7732
X6.4075Y-3.9312
X6.4084Y-4.0072
X6.4084Y-4.084
X6.4084Y-4.1607
X6.4084Y-4.3911
X6.4085Y-4.3306
X6.4085Y-3.6964
X6.4086Y-4.452
X6.4095Y-3.8532
X6.4095Y-4.2538
X6.4463Y-3.95
X6.465Y-4.5172
X6.4846Y-4.278
X6.4851Y-4.0072
X6.4851Y-4.084
X6.4851Y-4.1607
X6.4851Y-4.2375
X6.4851Y-4.3143
X6.4851Y-4.3754
X6.4853Y-3.6964
X6.4854Y-4.4682
X6.4855Y-3.7732
X6.4855Y-3.8532
X6.4855Y-3.9312
X6.487Y-3.6469
X6.5231Y-3.9312
X6.5615Y-3.7732
X6.5615Y-3.9312
X6.5615Y-4.3306
X6.5619Y-4.0072
X6.5619Y-4.084
X6.5619Y-4.1607
X6.5619Y-4.2534
X6.5619Y-4.3911
X6.5621Y-3.6964
X6.5635Y-3.8532
X6.5635Y-4.4519
X6.565Y-4.5172
X6.5999Y-3.9142
X6.6387Y-4.0072
X6.6387Y-4.084
X6.6387Y-4.1607
X6.6387Y-4.2375
X6.6387Y-4.3143
X6.6387Y-4.375
X6.6389Y-3.6964
X6.6389Y-4.4682
X6.6395Y-3.7732
X6.6395Y-3.8532
X6.6395Y-3.9312
X6.6398Y-3.6469
X6.674Y-4.4689
X6.7154Y-3.813
X6.7154Y-3.8921
X6.7154Y-3.9689
X6.7154Y-4.0453
X6.7154Y-4.1228
X6.7154Y-4.0072
X6.7154Y-4.084
X6.7154Y-4.1607
X6.7154Y-4.3305
X6.7154Y-4.3911
X6.7155Y-3.7732
X6.7155Y-3.8532
X6.7155Y-3.9312
X6.7156Y-3.6964
X6.7165Y-4.2538
X6.7534Y-3.8697
X6.7913Y-4.3748
X6.7915Y-3.7732
X6.7915Y-3.9312
X6.7922Y-4.0072
X6.7922Y-4.084
X6.7922Y-4.1607
X6.7922Y-4.2375
X6.7922Y-4.3143
X6.7924Y-3.6964
X6.7935Y-3.8532
X6.7937Y-3.6472
X6.8302Y-3.8532
X6.8689Y-3.8917
X6.8689Y-4.3306
X6.869Y-4.0072
X6.869Y-4.084
X6.869Y-4.1607
X6.869Y-4.3911
X6.8692Y-3.6964
X6.8695Y-3.7732
X6.8695Y-3.8172
X6.8695Y-3.8532
X6.8695Y-3.9312
X6.8695Y-4.2538
X6.8705Y-3.5872
X6.907Y-3.8362
X6.9265Y-4.2197
X6.9429Y-3.7336
X6.9445Y-3.5872
X6.9455Y-3.7732
X6.9455Y-3.8532
X6.9455Y-3.9312
X6.9458Y-4.0072
X6.9458Y-4.084
X6.9458Y-4.1607
X6.9458Y-4.2375
X6.9458Y-4.3143
X6.9459Y-3.6964
X6.9484Y-4.3748
X7.0031Y-4.4492
X7.0063Y-3.9346
X7.0142Y-4.0087
X7.0177Y-4.2776
X7.0205Y-3.5872
X7.0215Y-3.7732
X7.0224Y-4.3306
X7.0225Y-4.084
X7.0225Y-4.1607
X7.0225Y-4.2538
X7.0225Y-4.3911
X7.0227Y-3.6964
X7.0235Y-3.8532
X7.0547Y-4.487
X7.0795Y-4.4496
X7.0995Y-3.7732
X7.0995Y-4.0832
X7.0995Y-4.1602
X7.0995Y-4.2362
X7.0995Y-4.3142
X7.0995Y-4.4682
X7.0996Y-4.2752
X7.1016Y-3.8402
X7.1031Y-4.375
X7.1035Y-3.6787
X7.1126Y-3.9504
X7.1213Y-3.5843
X7.1362Y-4.1555
X7.1373Y-3.8149
X7.1449Y-4.5024
X7.1551Y-3.6752
X7.1685Y-4.037
X7.1755Y-4.2537
X7.1763Y-4.3306
X7.1763Y-4.3912
X7.2079Y-4.5024
X7.2435Y-3.6711
X7.2453Y-4.2669
X7.2472Y-3.6228
X7.252Y-4.3142
X7.2528Y-4.2374
X7.2543Y-4.3756
X7.2724Y-4.1807
X7.2829Y-4.3124
X7.287Y-4.3866
X7.289Y-4.2602
X7.3061Y-3.7569
X7.315Y-4.3689
X7.3189Y-3.9059
X7.3508Y-3.8149
X7.3583Y-4.485
X7.3676Y-3.8916
X7.3676Y-3.9684
X7.3676Y-4.0452
X7.3676Y-4.122
X7.3676Y-4.1987
X7.3748Y-3.7063
X7.3882Y-3.6574
X7.4256Y-4.3339
X7.4639Y-4.0647
X7.5031Y-4.5492
X7.5211Y-3.6574
X7.5224Y-4.478
X7.5421Y-4.0673
X7.5697Y-3.663
X7.6008Y-4.272
X7.6055Y-4.1331
X7.6298Y-3.673
X7.6298Y-3.723
X7.6298Y-3.773
X7.6298Y-3.823
X7.6298Y-3.873
X7.6298Y-3.923
X7.6417Y-4.2713
X7.6421Y-4.1724
M30
