%TF.GenerationSoftware,KiCad,Pcbnew,8.0.2-1.fc40*%
%TF.CreationDate,2025-03-27T00:29:42+07:00*%
%TF.ProjectId,BadgeMagic,42616467-654d-4616-9769-632e6b696361,rev?*%
%TF.SameCoordinates,Original*%
%TF.FileFunction,Paste,Top*%
%TF.FilePolarity,Positive*%
%FSLAX46Y46*%
G04 Gerber Fmt 4.6, Leading zero omitted, Abs format (unit mm)*
G04 Created by KiCad (PCBNEW 8.0.2-1.fc40) date 2025-03-27 00:29:42*
%MOMM*%
%LPD*%
G01*
G04 APERTURE LIST*
G04 Aperture macros list*
%AMRoundRect*
0 Rectangle with rounded corners*
0 $1 Rounding radius*
0 $2 $3 $4 $5 $6 $7 $8 $9 X,Y pos of 4 corners*
0 Add a 4 corners polygon primitive as box body*
4,1,4,$2,$3,$4,$5,$6,$7,$8,$9,$2,$3,0*
0 Add four circle primitives for the rounded corners*
1,1,$1+$1,$2,$3*
1,1,$1+$1,$4,$5*
1,1,$1+$1,$6,$7*
1,1,$1+$1,$8,$9*
0 Add four rect primitives between the rounded corners*
20,1,$1+$1,$2,$3,$4,$5,0*
20,1,$1+$1,$4,$5,$6,$7,0*
20,1,$1+$1,$6,$7,$8,$9,0*
20,1,$1+$1,$8,$9,$2,$3,0*%
%AMFreePoly0*
4,1,31,0.178810,0.549351,0.252244,0.488286,0.300365,0.405788,0.317367,0.311807,0.304552,0.116635,0.264621,-0.074837,0.254552,-0.102796,0.254066,-0.105238,0.253214,-0.106514,0.198358,-0.258863,0.107058,-0.431840,0.043354,-0.502995,-0.040846,-0.548072,-0.135385,-0.561633,-0.228860,-0.542041,-0.309998,-0.491660,-0.369011,-0.416568,-0.398782,-0.325819,-0.395721,-0.230362,-0.360194,-0.141710,
-0.328836,-0.091185,-0.280815,0.017619,-0.248450,0.132060,-0.232376,0.249898,-0.232627,0.309363,-0.216461,0.403491,-0.169076,0.486414,-0.096187,0.548129,-0.006586,0.581192,0.088919,0.581618,0.178810,0.549351,0.178810,0.549351,$1*%
%AMFreePoly1*
4,1,67,1.355826,1.110038,1.571854,1.049670,1.775415,0.955460,1.775415,0.955461,1.849167,0.894780,1.897718,0.812534,1.915210,0.718643,1.899536,0.624432,1.852583,0.541263,1.780017,0.479169,1.690591,0.445638,1.595089,0.444715,1.505031,0.476511,1.429035,0.519264,1.262866,0.572175,1.089393,0.590035,0.915929,0.572091,0.749785,0.519098,0.597965,0.433294,0.466868,0.318291,
0.362021,0.178939,0.287841,0.021112,0.247459,-0.148538,0.242574,-0.322859,0.273393,-0.494505,0.338617,-0.656239,0.435495,-0.801243,0.559945,-0.923407,0.706721,-1.017580,0.869637,-1.079794,1.041824,-1.107424,1.128931,-1.103495,1.128931,-1.103496,1.223656,-1.115685,1.308500,-1.159536,1.373229,-1.229762,1.410036,-1.317892,1.414481,-1.413295,1.386029,-1.504465,1.328110,-1.580405,
1.247711,-1.631956,1.154529,-1.652900,1.154529,-1.652899,0.930354,-1.645292,0.710295,-1.601855,0.500043,-1.523714,0.305032,-1.412883,0.130303,-1.272233,-0.019625,-1.105398,-0.140877,-0.916690,-0.230318,-0.710990,-0.285637,-0.493614,-0.305402,-0.270182,-0.289103,-0.046470,-0.259541,0.077716,-0.254066,0.105238,-0.252394,0.107741,-0.237162,0.171737,-0.150920,0.378799,-0.032609,0.569364,
0.114715,0.738504,0.287241,0.881846,0.480511,0.995686,0.689526,1.077079,0.908885,1.123923,1.132916,1.135004,1.355826,1.110038,1.355826,1.110038,$1*%
G04 Aperture macros list end*
%ADD10C,0.010000*%
%ADD11RoundRect,0.135000X-0.135000X-0.185000X0.135000X-0.185000X0.135000X0.185000X-0.135000X0.185000X0*%
%ADD12RoundRect,0.140000X0.140000X0.170000X-0.140000X0.170000X-0.140000X-0.170000X0.140000X-0.170000X0*%
%ADD13RoundRect,0.135000X0.185000X-0.135000X0.185000X0.135000X-0.185000X0.135000X-0.185000X-0.135000X0*%
%ADD14RoundRect,0.150000X0.150000X-0.512500X0.150000X0.512500X-0.150000X0.512500X-0.150000X-0.512500X0*%
%ADD15RoundRect,0.135000X-0.185000X0.135000X-0.185000X-0.135000X0.185000X-0.135000X0.185000X0.135000X0*%
%ADD16RoundRect,0.140000X-0.170000X0.140000X-0.170000X-0.140000X0.170000X-0.140000X0.170000X0.140000X0*%
%ADD17RoundRect,0.135000X0.135000X0.185000X-0.135000X0.185000X-0.135000X-0.185000X0.135000X-0.185000X0*%
%ADD18RoundRect,0.140000X0.170000X-0.140000X0.170000X0.140000X-0.170000X0.140000X-0.170000X-0.140000X0*%
%ADD19RoundRect,0.150000X0.512500X0.150000X-0.512500X0.150000X-0.512500X-0.150000X0.512500X-0.150000X0*%
%ADD20FreePoly0,60.000000*%
%ADD21FreePoly1,60.000000*%
%ADD22C,0.900000*%
%ADD23RoundRect,0.205883X1.294117X-0.494117X1.294117X0.494117X-1.294117X0.494117X-1.294117X-0.494117X0*%
%ADD24RoundRect,0.205882X1.294118X-0.494118X1.294118X0.494118X-1.294118X0.494118X-1.294118X-0.494118X0*%
%ADD25R,0.760000X1.600000*%
%ADD26RoundRect,0.625000X-0.625000X-0.625000X0.625000X-0.625000X0.625000X0.625000X-0.625000X0.625000X0*%
%ADD27R,1.200000X0.700000*%
%ADD28R,1.000000X1.500000*%
%ADD29RoundRect,0.150000X0.425000X-0.150000X0.425000X0.150000X-0.425000X0.150000X-0.425000X-0.150000X0*%
%ADD30RoundRect,0.075000X0.500000X-0.075000X0.500000X0.075000X-0.500000X0.075000X-0.500000X-0.075000X0*%
%ADD31RoundRect,0.150000X0.450000X-0.600000X0.450000X0.600000X-0.450000X0.600000X-0.450000X-0.600000X0*%
%ADD32RoundRect,0.062500X-0.062500X0.162500X-0.062500X-0.162500X0.062500X-0.162500X0.062500X0.162500X0*%
%ADD33R,1.600000X0.200000*%
%ADD34RoundRect,0.150000X-0.587500X-0.150000X0.587500X-0.150000X0.587500X0.150000X-0.587500X0.150000X0*%
%ADD35R,0.800000X0.900000*%
%ADD36R,0.900000X0.500000*%
%ADD37RoundRect,0.150000X-0.150000X-0.150000X0.150000X-0.150000X0.150000X0.150000X-0.150000X0.150000X0*%
%ADD38RoundRect,0.150000X0.150000X-0.150000X0.150000X0.150000X-0.150000X0.150000X-0.150000X-0.150000X0*%
%ADD39RoundRect,0.050000X-0.050000X-0.400000X0.050000X-0.400000X0.050000X0.400000X-0.050000X0.400000X0*%
%ADD40RoundRect,0.050000X-0.400000X-0.050000X0.400000X-0.050000X0.400000X0.050000X-0.400000X0.050000X0*%
%ADD41R,0.700000X1.200000*%
%ADD42R,1.500000X1.000000*%
G04 APERTURE END LIST*
D10*
%TO.C,KEY1*%
X194619455Y-110480000D02*
X193920000Y-110480000D01*
X193920000Y-109382090D01*
X194619455Y-109382090D01*
X194619455Y-110480000D01*
G36*
X194619455Y-110480000D02*
G01*
X193920000Y-110480000D01*
X193920000Y-109382090D01*
X194619455Y-109382090D01*
X194619455Y-110480000D01*
G37*
X194619843Y-114681200D02*
X193920000Y-114681200D01*
X193920000Y-113580000D01*
X194619843Y-113580000D01*
X194619843Y-114681200D01*
G36*
X194619843Y-114681200D02*
G01*
X193920000Y-114681200D01*
X193920000Y-113580000D01*
X194619843Y-113580000D01*
X194619843Y-114681200D01*
G37*
%TO.C,KEY2*%
X194639455Y-103468400D02*
X193940000Y-103468400D01*
X193940000Y-102370490D01*
X194639455Y-102370490D01*
X194639455Y-103468400D01*
G36*
X194639455Y-103468400D02*
G01*
X193940000Y-103468400D01*
X193940000Y-102370490D01*
X194639455Y-102370490D01*
X194639455Y-103468400D01*
G37*
X194639843Y-107669600D02*
X193940000Y-107669600D01*
X193940000Y-106568400D01*
X194639843Y-106568400D01*
X194639843Y-107669600D01*
G36*
X194639843Y-107669600D02*
G01*
X193940000Y-107669600D01*
X193940000Y-106568400D01*
X194639843Y-106568400D01*
X194639843Y-107669600D01*
G37*
%TO.C,KEY4*%
X172990000Y-115959843D02*
X171888800Y-115959843D01*
X171888800Y-115260000D01*
X172990000Y-115260000D01*
X172990000Y-115959843D01*
G36*
X172990000Y-115959843D02*
G01*
X171888800Y-115959843D01*
X171888800Y-115260000D01*
X172990000Y-115260000D01*
X172990000Y-115959843D01*
G37*
X177187910Y-115959455D02*
X176090000Y-115959455D01*
X176090000Y-115260000D01*
X177187910Y-115260000D01*
X177187910Y-115959455D01*
G36*
X177187910Y-115959455D02*
G01*
X176090000Y-115959455D01*
X176090000Y-115260000D01*
X177187910Y-115260000D01*
X177187910Y-115959455D01*
G37*
%TO.C,KEY3*%
X123050000Y-115949843D02*
X121948800Y-115949843D01*
X121948800Y-115250000D01*
X123050000Y-115250000D01*
X123050000Y-115949843D01*
G36*
X123050000Y-115949843D02*
G01*
X121948800Y-115949843D01*
X121948800Y-115250000D01*
X123050000Y-115250000D01*
X123050000Y-115949843D01*
G37*
X127247910Y-115949455D02*
X126150000Y-115949455D01*
X126150000Y-115250000D01*
X127247910Y-115250000D01*
X127247910Y-115949455D01*
G36*
X127247910Y-115949455D02*
G01*
X126150000Y-115949455D01*
X126150000Y-115250000D01*
X127247910Y-115250000D01*
X127247910Y-115949455D01*
G37*
%TD*%
D11*
%TO.C,R10*%
X182150000Y-112490000D03*
X183170000Y-112490000D03*
%TD*%
D12*
%TO.C,C2*%
X107090000Y-100640000D03*
X106130000Y-100640000D03*
%TD*%
D13*
%TO.C,R4*%
X185340000Y-93640000D03*
X185340000Y-92620000D03*
%TD*%
%TO.C,R5*%
X186960000Y-93210000D03*
X186960000Y-92190000D03*
%TD*%
D14*
%TO.C,U4*%
X183327500Y-101037500D03*
X184277500Y-101037500D03*
X185227500Y-101037500D03*
X185227500Y-98762500D03*
X183327500Y-98762500D03*
%TD*%
D15*
%TO.C,R6*%
X112254400Y-110569400D03*
X112254400Y-111589400D03*
%TD*%
%TO.C,R9*%
X116470800Y-110569400D03*
X116470800Y-111589400D03*
%TD*%
D16*
%TO.C,C7*%
X113270400Y-110599400D03*
X113270400Y-111559400D03*
%TD*%
D17*
%TO.C,R7*%
X188300000Y-111800000D03*
X187280000Y-111800000D03*
%TD*%
D18*
%TO.C,C8*%
X105840000Y-94280000D03*
X105840000Y-93320000D03*
%TD*%
%TO.C,C5*%
X109816000Y-109019400D03*
X109816000Y-108059400D03*
%TD*%
D16*
%TO.C,C4*%
X110832000Y-108059400D03*
X110832000Y-109019400D03*
%TD*%
D19*
%TO.C,U3*%
X189585000Y-110140000D03*
X189585000Y-109190000D03*
X189585000Y-108240000D03*
X187310000Y-108240000D03*
X187310000Y-110140000D03*
%TD*%
D20*
%TO.C,MK1*%
X109244930Y-112317002D03*
D21*
X107695582Y-113929669D03*
D22*
X108440000Y-113100000D03*
%TD*%
D23*
%TO.C,J1*%
X180413200Y-101420000D03*
D24*
X180413200Y-98920000D03*
%TD*%
D17*
%TO.C,R1*%
X152580000Y-109000000D03*
X151560000Y-109000000D03*
%TD*%
D25*
%TO.C,SW1*%
X119380000Y-114860000D03*
X119380000Y-109780000D03*
%TD*%
D11*
%TO.C,R11*%
X182150000Y-113480000D03*
X183170000Y-113480000D03*
%TD*%
D15*
%TO.C,R8*%
X115454800Y-110569400D03*
X115454800Y-111589400D03*
%TD*%
D26*
%TO.C,BT1*%
X182929200Y-104320200D03*
X182929200Y-95320200D03*
%TD*%
D27*
%TO.C,KEY1*%
X192020000Y-110330000D03*
X192020000Y-113730000D03*
D28*
X191720000Y-112030000D03*
%TD*%
D11*
%TO.C,R3*%
X188155600Y-106752000D03*
X189175600Y-106752000D03*
%TD*%
D27*
%TO.C,KEY2*%
X192040000Y-103318400D03*
X192040000Y-106718400D03*
D28*
X191740000Y-105018400D03*
%TD*%
D12*
%TO.C,C6*%
X189145600Y-105812200D03*
X188185600Y-105812200D03*
%TD*%
D29*
%TO.C,J2*%
X188710000Y-99330000D03*
X188710000Y-98530000D03*
D30*
X188710000Y-97380000D03*
X188710000Y-96380000D03*
X188710000Y-95880000D03*
X188710000Y-94880000D03*
D29*
X188710000Y-93730000D03*
X188710000Y-92930000D03*
X188710000Y-92930000D03*
X188710000Y-93730000D03*
D30*
X188710000Y-94380000D03*
X188710000Y-95380000D03*
X188710000Y-96880000D03*
X188710000Y-97880000D03*
D29*
X188710000Y-98530000D03*
X188710000Y-99330000D03*
D31*
X189285000Y-101240000D03*
X193215000Y-101240000D03*
X189285000Y-91020000D03*
X193215000Y-91020000D03*
%TD*%
D18*
%TO.C,C3*%
X121500000Y-110960000D03*
X121500000Y-110000000D03*
%TD*%
D32*
%TO.C,U5*%
X106680000Y-96752500D03*
X106180000Y-96752500D03*
X105680000Y-96752500D03*
X105180000Y-96752500D03*
X105180000Y-99327500D03*
X105680000Y-99327500D03*
X106180000Y-99327500D03*
X106680000Y-99327500D03*
D33*
X105930000Y-98040000D03*
%TD*%
D34*
%TO.C,Q1*%
X111842500Y-112920000D03*
X111842500Y-114820000D03*
X113717500Y-113870000D03*
%TD*%
D35*
%TO.C,Y1*%
X113670000Y-98610000D03*
X113670000Y-97210000D03*
X112570000Y-97210000D03*
X112570000Y-98610000D03*
%TD*%
D16*
%TO.C,C1*%
X111360000Y-98280000D03*
X111360000Y-99240000D03*
%TD*%
D36*
%TO.C,AE1*%
X108049000Y-96292525D03*
%TD*%
D17*
%TO.C,R2*%
X150550000Y-108990000D03*
X149530000Y-108990000D03*
%TD*%
D37*
%TO.C,U1*%
X110971000Y-103598400D03*
X110971000Y-104348400D03*
X110971000Y-105098400D03*
X111721000Y-103598400D03*
X111721000Y-104348400D03*
X111721000Y-105098400D03*
D38*
X112471000Y-103598400D03*
D37*
X112471000Y-104348400D03*
X112471000Y-105098400D03*
D39*
X110146000Y-106888400D03*
X110496000Y-106888400D03*
X110846000Y-106888400D03*
X111196000Y-106888400D03*
X111546000Y-106888400D03*
X111896000Y-106888400D03*
X112246000Y-106888400D03*
X112596000Y-106888400D03*
X112946000Y-106888400D03*
X113296000Y-106888400D03*
D40*
X114261000Y-106623400D03*
X114261000Y-106273400D03*
X114261000Y-105923400D03*
X114261000Y-105573400D03*
X114261000Y-105223400D03*
X114261000Y-104873400D03*
X114261000Y-104523400D03*
X114261000Y-104173400D03*
X114261000Y-103823400D03*
X114261000Y-103473400D03*
X114261000Y-103123400D03*
X114261000Y-102773400D03*
X114261000Y-102423400D03*
X114261000Y-102073400D03*
D39*
X113296000Y-101808400D03*
X112946000Y-101808400D03*
X112596000Y-101808400D03*
X112246000Y-101808400D03*
X111896000Y-101808400D03*
X111546000Y-101808400D03*
X111196000Y-101808400D03*
X110846000Y-101808400D03*
X110496000Y-101808400D03*
X110146000Y-101808400D03*
D40*
X109181000Y-102073400D03*
X109181000Y-102423400D03*
X109181000Y-102773400D03*
X109181000Y-103123400D03*
X109181000Y-103473400D03*
X109181000Y-103823400D03*
X109181000Y-104173400D03*
X109181000Y-104523400D03*
X109181000Y-104873400D03*
X109181000Y-105223400D03*
X109181000Y-105573400D03*
X109181000Y-105923400D03*
X109181000Y-106273400D03*
X109181000Y-106623400D03*
%TD*%
D41*
%TO.C,KEY4*%
X176240000Y-113360000D03*
X172840000Y-113360000D03*
D42*
X174540000Y-113060000D03*
%TD*%
D14*
%TO.C,U2*%
X123260000Y-108267500D03*
X125160000Y-108267500D03*
X124210000Y-105992500D03*
%TD*%
D41*
%TO.C,KEY3*%
X126300000Y-113350000D03*
X122900000Y-113350000D03*
D42*
X124600000Y-113050000D03*
%TD*%
M02*
